<svg width="1025" height="444" viewBox="0 0 1025 444" fill="none" xmlns="http://www.w3.org/2000/svg">
<path d="M161.754 72.9092H205.787V353.732H183.77L164.899 335.31C148.724 346.992 128.954 353.732 107.387 353.732C53.0193 353.732 9.43564 310.148 9.43564 255.781C9.43564 201.414 53.0193 157.381 107.387 157.381C127.606 157.381 146.477 163.671 161.754 174.005V72.9092ZM107.387 310.148C137.491 310.148 161.754 285.885 161.754 255.781C161.754 225.677 137.491 201.414 107.387 201.414C77.2824 201.414 53.0193 225.677 53.0193 255.781C53.0193 285.885 77.2824 310.148 107.387 310.148ZM246.885 136.263C259.017 136.263 268.902 146.148 268.902 158.279C268.902 169.962 259.017 179.847 246.885 179.847C234.754 179.847 225.318 169.962 225.318 158.279C225.318 146.148 234.754 136.263 246.885 136.263ZM225.318 353.732V191.079H268.902V353.732H225.318ZM485.314 136.263C497.446 136.263 507.331 146.148 507.331 158.279C507.331 169.962 497.446 179.847 485.314 179.847C473.183 179.847 463.298 169.962 463.298 158.279C463.298 146.148 473.183 136.263 485.314 136.263ZM288.064 255.781C288.064 201.414 331.648 157.381 386.015 157.381C440.383 157.381 484.416 201.414 484.416 255.781C484.416 287.233 469.588 315.091 446.673 333.063H484.416C484.416 387.431 440.383 431.464 386.015 431.464V387.88C414.772 387.88 438.136 365.414 440.383 337.557C424.657 347.891 406.235 353.732 386.015 353.732C331.648 353.732 288.064 310.148 288.064 255.781ZM440.383 255.781C440.383 225.677 416.12 201.414 386.015 201.414C355.911 201.414 331.648 225.677 331.648 255.781C331.648 285.885 355.911 310.148 386.015 310.148C416.12 310.148 440.383 285.885 440.383 255.781ZM548.331 136.263C560.462 136.263 570.347 146.148 570.347 158.279C570.347 169.962 560.462 179.847 548.331 179.847C536.199 179.847 526.764 169.962 526.764 158.279C526.764 146.148 536.199 136.263 548.331 136.263ZM526.764 353.732V191.079H570.347V353.732H526.764Z" fill="white"/>
<path d="M659.379 69.9128C660.406 69.9128 661.434 69.7072 662.462 69.7072H691.034V107.94H662.462C661.434 107.94 660.406 107.94 659.379 108.146C644.99 109.585 633.89 121.712 633.89 136.512V145.968H672.123V183.995H633.89V273H595.863V183.995V145.968V136.512C595.863 126.235 598.124 116.574 602.235 107.94C612.512 86.3571 634.096 71.1461 659.379 69.9128ZM769.739 139.801C789.883 149.257 804.066 168.373 807.149 190.367C807.766 193.656 807.972 196.74 807.972 200.028V206.401C807.972 209.484 807.766 212.773 807.149 215.856H714.239C718.145 226.956 728.833 234.973 741.167 234.973C751.855 234.973 760.9 229.217 766.039 220.584L794.816 246.072C782.277 262.928 762.544 273 741.167 273C731.094 273 721.228 270.739 712.595 266.628C692.861 257.172 678.473 238.261 675.184 215.856C674.773 212.773 674.567 209.484 674.567 206.401V200.028C674.567 196.74 674.773 193.656 675.184 190.367C678.473 167.962 692.861 149.051 712.595 139.801C721.228 135.69 731.094 133.223 741.167 133.223C751.444 133.223 761.105 135.69 769.739 139.801ZM714.239 190.367H768.094C766.861 186.462 764.394 182.762 761.516 179.679C756.378 174.54 749.183 171.456 741.167 171.456C728.833 171.456 718.145 179.267 714.239 190.367ZM928.217 212.567V212.773C933.151 220.789 933.973 230.245 930.89 239.495C927.806 248.95 921.023 256.761 911.979 261.9C899.44 269.094 882.79 273 864.907 273C864.496 273 864.085 273 863.468 273C845.585 272.794 828.524 268.889 815.163 261.9L813.107 260.872V229.217L818.041 230.039C819.685 230.245 822.768 231.067 828.524 232.711C839.624 235.795 858.124 240.934 866.14 240.934C881.968 240.934 890.807 238.878 893.684 234.767C895.123 232.711 895.123 228.806 893.89 227.573C889.984 223.667 878.679 220.789 869.429 218.528C864.496 217.295 859.974 216.267 856.479 215.034C846.407 211.951 837.979 208.251 830.99 203.523C823.385 198.59 818.041 192.834 814.957 186.462C810.435 177.212 811.257 166.934 817.218 156.245V156.04H817.424C825.646 143.707 841.885 135.69 862.646 133.84C881.146 131.99 901.084 135.279 916.09 142.268L918.351 143.296V177.212L912.801 175.362C912.184 175.362 911.362 174.951 910.129 174.54C890.807 168.168 878.268 164.879 873.129 164.879C868.607 164.879 854.835 164.879 851.957 169.401C849.49 174.129 854.424 177.417 857.507 178.856C863.879 181.94 872.512 184.406 881.557 187.078C894.712 190.573 908.279 194.478 917.118 201.056C921.64 204.345 925.34 208.251 928.217 212.567ZM989.786 228.6C989.786 232.095 992.663 234.973 996.158 234.973H1021.65V273H996.158C971.491 273 951.758 253.061 951.758 228.6V171.456H932.642V133.223H951.758V95.1959H989.786V133.223H1008.9V171.456H996.158H989.786H958.13V177.829C971.697 177.829 989.786 178.24 989.786 196.74C989.786 204.756 989.786 228.6 989.786 228.6Z" fill="white"/>
<path d="M999.719 342.986C996.05 342.986 992.902 342.423 990.275 341.298C987.648 340.129 985.496 338.506 983.821 336.428C982.19 334.307 980.967 331.883 980.152 329.155C979.382 326.428 978.997 323.506 978.997 320.389V317.662C978.997 309.784 981.103 303.853 985.315 299.871C989.528 295.845 995.733 293.832 1003.93 293.832C1005.61 293.832 1007.26 293.875 1008.89 293.962C1010.52 294.048 1012.11 294.178 1013.65 294.351V303.247C1012.15 303.117 1010.54 303.009 1008.82 302.923C1007.1 302.793 1005.34 302.728 1003.52 302.728C999.9 302.728 997.046 303.312 994.963 304.481C992.879 305.606 991.407 307.316 990.547 309.611C989.686 311.905 989.256 314.74 989.256 318.117V323.052L986.81 324.61C986.855 321.363 987.535 318.658 988.848 316.494C990.207 314.286 992.064 312.641 994.419 311.559C996.775 310.476 999.492 309.935 1002.57 309.935C1006.06 309.935 1009.07 310.606 1011.61 311.948C1014.15 313.247 1016.09 315.087 1017.45 317.468C1018.81 319.848 1019.49 322.662 1019.49 325.909C1019.49 329.329 1018.67 332.337 1017.04 334.934C1015.41 337.488 1013.1 339.48 1010.11 340.908C1007.17 342.293 1003.7 342.986 999.719 342.986ZM999.379 334.155C1001.37 334.155 1003.05 333.809 1004.41 333.116C1005.81 332.424 1006.88 331.493 1007.6 330.324C1008.37 329.112 1008.76 327.705 1008.76 326.104C1008.76 324.459 1008.39 323.052 1007.67 321.883C1006.94 320.671 1005.9 319.74 1004.54 319.091C1003.23 318.398 1001.6 318.052 999.651 318.052C997.884 318.052 996.254 318.355 994.759 318.961C993.31 319.524 992.155 320.411 991.294 321.623C990.433 322.792 990.003 324.285 990.003 326.104C990.003 327.662 990.343 329.047 991.022 330.259C991.747 331.471 992.811 332.424 994.216 333.116C995.62 333.809 997.341 334.155 999.379 334.155Z" fill="white"/>
<path d="M940.553 341.622V331.882C940.553 329.847 940.893 328.073 941.572 326.557C942.297 325.042 943.429 323.7 944.969 322.532C946.509 321.32 948.547 320.194 951.084 319.155L959.101 315.844C961.139 315.021 962.634 314.004 963.585 312.792C964.582 311.58 965.08 310.043 965.08 308.182C965.08 306.277 964.468 304.718 963.245 303.506C962.022 302.294 960.233 301.688 957.878 301.688C955.523 301.688 953.734 302.316 952.511 303.571C951.288 304.827 950.676 306.515 950.676 308.636H939.874C939.874 305.649 940.553 302.965 941.912 300.584C943.271 298.16 945.286 296.256 947.959 294.87C950.631 293.485 953.937 292.792 957.878 292.792C961.819 292.792 965.102 293.463 967.73 294.805C970.402 296.147 972.417 297.944 973.776 300.195C975.18 302.446 975.883 304.978 975.883 307.792V308.571C975.883 312.207 974.841 315.216 972.757 317.597C970.674 319.934 967.458 322.012 963.11 323.83L955.16 327.142C953.802 327.705 952.828 328.289 952.239 328.895C951.695 329.501 951.424 330.324 951.424 331.362V334.609L948.774 332.466H975.95V341.622H940.553Z" fill="white"/>
<path d="M914.688 342.856C910.748 342.856 907.373 342.249 904.565 341.037C901.757 339.782 899.469 338.094 897.703 335.973C895.982 333.852 894.691 331.406 893.83 328.635C893.015 325.822 892.607 322.856 892.607 319.74V316.038C892.607 311.71 893.4 307.792 894.985 304.286C896.571 300.779 898.994 297.987 902.255 295.909C905.516 293.831 909.661 292.792 914.688 292.792C919.716 292.792 923.838 293.831 927.054 295.909C930.315 297.987 932.738 300.779 934.323 304.286C935.909 307.792 936.701 311.71 936.701 316.038V319.74C936.701 322.856 936.271 325.822 935.41 328.635C934.595 331.406 933.304 333.852 931.538 335.973C929.817 338.094 927.552 339.782 924.744 341.037C921.981 342.249 918.629 342.856 914.688 342.856ZM914.688 333.051C918.357 333.051 921.075 331.839 922.841 329.414C924.653 326.947 925.559 323.138 925.559 317.986C925.559 312.532 924.63 308.614 922.773 306.234C920.962 303.809 918.267 302.597 914.688 302.597C911.02 302.597 908.279 303.809 906.467 306.234C904.656 308.614 903.75 312.489 903.75 317.856C903.75 323.051 904.633 326.882 906.4 329.35C908.211 331.817 910.974 333.051 914.688 333.051Z" fill="white"/>
<path d="M853.96 341.622V331.882C853.96 329.847 854.3 328.073 854.979 326.557C855.704 325.042 856.836 323.7 858.376 322.532C859.916 321.32 861.954 320.194 864.491 319.155L872.508 315.844C874.546 315.021 876.041 314.004 876.992 312.792C877.988 311.58 878.487 310.043 878.487 308.182C878.487 306.277 877.875 304.718 876.652 303.506C875.429 302.294 873.64 301.688 871.285 301.688C868.93 301.688 867.14 302.316 865.917 303.571C864.695 304.827 864.083 306.515 864.083 308.636H853.28C853.28 305.649 853.96 302.965 855.319 300.584C856.677 298.16 858.693 296.256 861.365 294.87C864.038 293.485 867.344 292.792 871.285 292.792C875.225 292.792 878.509 293.463 881.136 294.805C883.809 296.147 885.824 297.944 887.183 300.195C888.587 302.446 889.289 304.978 889.289 307.792V308.571C889.289 312.207 888.248 315.216 886.164 317.597C884.08 319.934 880.865 322.012 876.516 323.83L868.567 327.142C867.208 327.705 866.235 328.289 865.646 328.895C865.102 329.501 864.83 330.324 864.83 331.362V334.609L862.181 332.466H889.357V341.622H853.96Z" fill="white"/>
<path d="M619.046 301.159C623.666 301.159 627.413 304.904 627.413 309.524V334.621C627.413 339.241 623.667 342.986 619.046 342.986C614.426 342.986 610.681 339.241 610.681 334.621V309.524C610.681 304.904 614.427 301.159 619.046 301.159ZM652.508 301.159C657.128 301.159 660.874 304.904 660.874 309.524V334.621C660.874 339.241 657.128 342.986 652.508 342.986C647.888 342.986 644.143 339.241 644.143 334.621V309.524C644.143 304.904 647.888 301.159 652.508 301.159ZM685.971 301.159C690.591 301.159 694.336 304.904 694.336 309.524V334.621C694.336 339.241 690.591 342.986 685.971 342.986C681.351 342.986 677.605 339.241 677.605 334.621V309.524C677.605 304.904 681.351 301.159 685.971 301.159ZM719.432 301.159C724.052 301.159 727.798 304.904 727.798 309.524V334.621C727.798 339.241 724.052 342.986 719.432 342.986C714.812 342.986 711.067 339.241 711.067 334.621V309.524C711.067 304.904 714.812 301.159 719.432 301.159ZM752.894 301.159C757.514 301.159 761.26 304.904 761.26 309.524V334.621C761.26 339.241 757.514 342.986 752.894 342.986C748.274 342.986 744.529 339.241 744.529 334.621V309.524C744.529 304.904 748.274 301.159 752.894 301.159ZM786.357 301.159C790.977 301.159 794.722 304.904 794.722 309.524V334.621C794.722 339.241 790.977 342.986 786.357 342.986C781.737 342.986 777.991 339.241 777.991 334.621V309.524C777.991 304.904 781.737 301.159 786.357 301.159ZM819.819 301.159C824.439 301.159 828.184 304.904 828.184 309.524V334.621C828.184 339.241 824.439 342.986 819.819 342.986C815.199 342.986 811.453 339.241 811.453 334.621V309.524C811.453 304.904 815.199 301.159 819.819 301.159Z" fill="url(#paint0_linear_42_404)"/>
<defs>
<linearGradient id="paint0_linear_42_404" x1="610.681" y1="322.072" x2="828.184" y2="322.072" gradientUnits="userSpaceOnUse">
<stop stop-color="#999999" stop-opacity="0"/>
<stop offset="1" stop-color="white"/>
</linearGradient>
</defs>
</svg>
