<svg width="215" height="176" viewBox="0 0 215 176" fill="none" xmlns="http://www.w3.org/2000/svg">
<path d="M201.142 20.3369C205.037 20.3369 208.21 23.5101 208.21 27.4045C208.21 31.1546 205.037 34.3278 201.142 34.3278C197.248 34.3278 194.219 31.1546 194.219 27.4045C194.219 23.5101 197.248 20.3369 201.142 20.3369ZM194.219 90.1473V37.9337H208.21V90.1473H194.219Z" fill="white"/>
<path d="M182.356 20.3369C186.25 20.3369 189.423 23.5101 189.423 27.4045C189.423 31.1546 186.25 34.3278 182.356 34.3278C178.461 34.3278 175.288 31.1546 175.288 27.4045C175.288 23.5101 178.461 20.3369 182.356 20.3369ZM119.036 58.7038C119.036 41.2512 133.027 27.116 150.479 27.116C167.932 27.116 182.067 41.2512 182.067 58.7038C182.067 68.8003 177.307 77.7429 169.951 83.5124H182.067C182.067 100.965 167.699 118.694 150.246 118.694L150.246 106.26C159.477 106.26 167.211 93.8974 167.932 84.9548C162.884 88.2722 156.97 90.1473 150.479 90.1473C133.027 90.1473 119.036 76.1563 119.036 58.7038ZM167.932 58.7038C167.932 49.0399 160.143 41.2512 150.479 41.2512C140.816 41.2512 133.027 49.0399 133.027 58.7038C133.027 68.3676 140.816 76.1563 150.479 76.1563C160.143 76.1563 167.932 68.3676 167.932 58.7038Z" fill="white"/>
<path d="M107.259 20.3369C111.154 20.3369 114.327 23.5101 114.327 27.4045C114.327 31.1546 111.154 34.3278 107.259 34.3278C103.365 34.3278 100.336 31.1546 100.336 27.4045C100.336 23.5101 103.365 20.3369 107.259 20.3369ZM100.336 90.1473V37.9337H114.327V90.1473H100.336Z" fill="white"/>
<path d="M81.3733 0H95.5084V90.1477H88.4408L82.3829 84.234C77.1904 87.9841 70.844 90.1477 63.9207 90.1477C46.4681 90.1477 32.4772 76.1567 32.4772 58.7042C32.4772 41.2516 46.4681 27.1164 63.9207 27.1164C70.4113 27.1164 76.4692 29.1357 81.3733 32.4532V0ZM63.9207 76.1567C73.5845 76.1567 81.3733 68.368 81.3733 58.7042C81.3733 49.0403 73.5845 41.2516 63.9207 41.2516C54.2568 41.2516 46.4681 49.0403 46.4681 58.7042C46.4681 68.368 54.2568 76.1567 63.9207 76.1567Z" fill="white"/>
<path d="M160.545 154.719V151.509C160.545 150.839 160.652 150.254 160.866 149.755C161.094 149.255 161.451 148.813 161.936 148.428C162.421 148.029 163.063 147.658 163.861 147.315L166.386 146.224C167.028 145.953 167.499 145.618 167.799 145.218C168.113 144.819 168.27 144.312 168.27 143.699C168.27 143.071 168.077 142.558 167.692 142.158C167.307 141.759 166.743 141.559 166.001 141.559C165.259 141.559 164.696 141.766 164.311 142.18C163.926 142.593 163.733 143.15 163.733 143.849H160.331C160.331 142.864 160.545 141.98 160.973 141.195C161.401 140.396 162.035 139.769 162.877 139.312C163.719 138.856 164.76 138.627 166.001 138.627C167.242 138.627 168.277 138.849 169.104 139.291C169.946 139.733 170.581 140.325 171.009 141.067C171.451 141.809 171.672 142.643 171.672 143.571V143.827C171.672 145.026 171.344 146.017 170.688 146.802C170.031 147.572 169.019 148.257 167.649 148.856L165.145 149.947C164.717 150.133 164.411 150.325 164.225 150.525C164.054 150.725 163.968 150.996 163.968 151.338V152.408L163.134 151.702H171.693V154.719H160.545ZM179.672 155.126C178.43 155.126 177.368 154.926 176.483 154.527C175.599 154.113 174.878 153.557 174.322 152.858C173.78 152.159 173.373 151.353 173.102 150.44C172.845 149.512 172.717 148.535 172.717 147.508V146.288C172.717 144.862 172.967 143.571 173.466 142.415C173.965 141.26 174.728 140.339 175.756 139.655C176.783 138.97 178.088 138.627 179.672 138.627C181.255 138.627 182.553 138.97 183.566 139.655C184.593 140.339 185.356 141.26 185.856 142.415C186.355 143.571 186.605 144.862 186.605 146.288V147.508C186.605 148.535 186.469 149.512 186.198 150.44C185.941 151.353 185.535 152.159 184.978 152.858C184.436 153.557 183.723 154.113 182.839 154.527C181.968 154.926 180.913 155.126 179.672 155.126ZM179.672 151.895C180.827 151.895 181.683 151.495 182.239 150.696C182.81 149.883 183.095 148.628 183.095 146.93C183.095 145.133 182.803 143.842 182.218 143.057C181.647 142.258 180.799 141.859 179.672 141.859C178.516 141.859 177.653 142.258 177.082 143.057C176.512 143.842 176.226 145.118 176.226 146.887C176.226 148.599 176.505 149.862 177.061 150.675C177.632 151.488 178.502 151.895 179.672 151.895ZM187.818 154.719V151.509C187.818 150.839 187.925 150.254 188.139 149.755C188.367 149.255 188.724 148.813 189.209 148.428C189.694 148.029 190.336 147.658 191.135 147.315L193.66 146.224C194.302 145.953 194.772 145.618 195.072 145.218C195.386 144.819 195.543 144.312 195.543 143.699C195.543 143.071 195.35 142.558 194.965 142.158C194.58 141.759 194.016 141.559 193.275 141.559C192.533 141.559 191.969 141.766 191.584 142.18C191.199 142.593 191.006 143.15 191.006 143.849H187.604C187.604 142.864 187.818 141.98 188.246 141.195C188.674 140.396 189.309 139.769 190.15 139.312C190.992 138.856 192.033 138.627 193.275 138.627C194.516 138.627 195.55 138.849 196.377 139.291C197.219 139.733 197.854 140.325 198.282 141.067C198.724 141.809 198.945 142.643 198.945 143.571V143.827C198.945 145.026 198.617 146.017 197.961 146.802C197.305 147.572 196.292 148.257 194.922 148.856L192.419 149.947C191.991 150.133 191.684 150.325 191.498 150.525C191.327 150.725 191.242 150.996 191.242 151.338V152.408L190.407 151.702H198.967V154.719H187.818ZM206.453 155.169C205.297 155.169 204.306 154.983 203.478 154.612C202.651 154.227 201.973 153.692 201.445 153.007C200.932 152.308 200.547 151.509 200.29 150.611C200.047 149.712 199.926 148.749 199.926 147.722V146.823C199.926 144.227 200.589 142.272 201.916 140.96C203.243 139.633 205.197 138.97 207.779 138.97C208.307 138.97 208.828 138.984 209.341 139.013C209.855 139.041 210.354 139.084 210.839 139.141V142.073C210.368 142.03 209.862 141.994 209.32 141.966C208.778 141.923 208.221 141.901 207.651 141.901C206.51 141.901 205.611 142.094 204.955 142.479C204.298 142.85 203.835 143.414 203.564 144.17C203.293 144.926 203.157 145.86 203.157 146.973V148.599L202.387 149.113C202.401 148.043 202.615 147.151 203.029 146.438C203.457 145.71 204.042 145.168 204.783 144.812C205.525 144.455 206.381 144.277 207.351 144.277C208.45 144.277 209.398 144.498 210.197 144.94C210.996 145.368 211.61 145.974 212.038 146.759C212.466 147.544 212.68 148.471 212.68 149.541C212.68 150.668 212.423 151.659 211.909 152.515C211.396 153.357 210.668 154.013 209.727 154.484C208.799 154.94 207.708 155.169 206.453 155.169ZM206.346 152.258C206.973 152.258 207.501 152.144 207.929 151.916C208.371 151.688 208.707 151.381 208.935 150.996C209.177 150.596 209.299 150.133 209.299 149.605C209.299 149.063 209.184 148.599 208.956 148.214C208.728 147.815 208.4 147.508 207.972 147.294C207.558 147.066 207.045 146.952 206.431 146.952C205.875 146.952 205.361 147.051 204.89 147.251C204.434 147.437 204.07 147.729 203.799 148.128C203.528 148.514 203.393 149.006 203.393 149.605C203.393 150.119 203.5 150.575 203.714 150.974C203.942 151.374 204.277 151.688 204.719 151.916C205.161 152.144 205.704 152.258 206.346 152.258Z" fill="white"/>
<path d="M25.6419 83.0275C25.999 83.0275 26.3561 82.956 26.7133 82.956H36.6415V96.2412H26.7133C26.3561 96.2412 25.999 96.2412 25.6419 96.3127C20.6421 96.8127 16.7851 101.027 16.7851 106.169V109.455H30.0703V122.669H16.7851V153.596H3.57129V122.669V109.455V106.169C3.57129 102.598 4.35698 99.2411 5.78549 96.2412C9.35678 88.7415 16.8565 83.456 25.6419 83.0275ZM63.9897 107.312C70.9895 110.598 75.9178 117.24 76.9892 124.883C77.2035 126.026 77.2749 127.097 77.2749 128.24V130.454C77.2749 131.526 77.2035 132.668 76.9892 133.74H44.7048C46.0618 137.597 49.776 140.382 54.0615 140.382C57.7757 140.382 60.9184 138.382 62.7041 135.383L72.7037 144.239C68.3467 150.096 61.4898 153.596 54.0615 153.596C50.5617 153.596 47.1332 152.811 44.1334 151.382C37.2765 148.096 32.2767 141.525 31.1339 133.74C30.991 132.668 30.9196 131.526 30.9196 130.454V128.24C30.9196 127.097 30.991 126.026 31.1339 124.883C32.2767 117.098 37.2765 110.526 44.1334 107.312C47.1332 105.884 50.5617 105.027 54.0615 105.027C57.6328 105.027 60.9898 105.884 63.9897 107.312ZM44.7048 124.883H63.4183C62.9898 123.526 62.1327 122.24 61.1327 121.169C59.3471 119.383 56.8471 118.312 54.0615 118.312C49.776 118.312 46.0618 121.026 44.7048 124.883ZM119.058 132.597V132.668C120.772 135.454 121.058 138.74 119.986 141.954C118.915 145.239 116.558 147.954 113.415 149.739C109.058 152.239 103.273 153.596 97.0588 153.596C96.9159 153.596 96.7731 153.596 96.5588 153.596C90.3447 153.525 84.4164 152.168 79.7737 149.739L79.0595 149.382V138.382L80.7737 138.668C81.3451 138.74 82.4165 139.025 84.4164 139.597C88.2734 140.668 94.7017 142.454 97.4873 142.454C102.987 142.454 106.058 141.74 107.058 140.311C107.558 139.597 107.558 138.24 107.13 137.811C105.773 136.454 101.844 135.454 98.6301 134.668C96.9159 134.24 95.3446 133.883 94.1303 133.454C90.6304 132.383 87.702 131.097 85.2735 129.454C82.6308 127.74 80.7737 125.74 79.7023 123.526C78.1309 120.312 78.4166 116.74 80.488 113.026V112.955H80.5594C83.4164 108.669 89.0591 105.884 96.2731 105.241C102.701 104.598 109.63 105.741 114.844 108.169L115.629 108.526V120.312L113.701 119.669C113.487 119.669 113.201 119.526 112.772 119.383C106.058 117.169 101.701 116.026 99.9158 116.026C98.3444 116.026 93.5589 116.026 92.5589 117.598C91.7018 119.24 93.4161 120.383 94.4874 120.883C96.7016 121.955 99.7015 122.812 102.844 123.74C107.416 124.954 112.13 126.312 115.201 128.597C116.772 129.74 118.058 131.097 119.058 132.597ZM140.452 138.168C140.452 139.382 141.452 140.382 142.666 140.382H151.523V153.596H142.666C134.095 153.596 127.238 146.668 127.238 138.168V118.312H120.595V105.027H127.238V91.8128H140.452V105.027H147.094V118.312H142.666H140.452H129.452V120.526C134.166 120.526 140.452 120.669 140.452 127.097C140.452 129.883 140.452 138.168 140.452 138.168Z" fill="white"/>
<path d="M163.768 121.699C164.598 121.699 165.27 122.372 165.27 123.202V132.217C165.27 133.046 164.598 133.719 163.768 133.719C162.938 133.719 162.265 133.047 162.265 132.217V123.202C162.265 122.372 162.938 121.699 163.768 121.699ZM172.783 118.694C173.613 118.694 174.285 119.368 174.285 120.197V132.217C174.285 133.046 173.612 133.719 172.783 133.719C171.953 133.719 171.28 133.047 171.28 132.217V120.197C171.28 119.367 171.953 118.694 172.783 118.694ZM181.797 115.689C182.627 115.689 183.299 116.363 183.299 117.192V132.217C183.299 133.046 182.627 133.719 181.797 133.719C180.968 133.719 180.295 133.046 180.295 132.217V117.192C180.295 116.363 180.968 115.689 181.797 115.689ZM190.812 112.685C191.642 112.685 192.315 113.358 192.315 114.188V132.217C192.315 133.046 191.642 133.719 190.812 133.719C189.982 133.719 189.31 133.046 189.31 132.217V114.188C189.31 113.358 189.982 112.685 190.812 112.685ZM199.827 109.68C200.657 109.68 201.33 110.353 201.33 111.183V132.217C201.33 133.047 200.657 133.719 199.827 133.719C198.997 133.719 198.325 133.046 198.325 132.217V111.183C198.325 110.353 198.997 109.68 199.827 109.68ZM208.962 106.675C209.857 106.675 210.583 107.401 210.584 108.297V132.097C210.584 132.993 209.858 133.719 208.962 133.719C208.066 133.719 207.339 132.993 207.339 132.097V108.297C207.34 107.401 208.066 106.675 208.962 106.675Z" fill="url(#paint0_linear_14_841)"/>
<defs>
<linearGradient id="paint0_linear_14_841" x1="210.125" y1="117.818" x2="164.125" y2="126.318" gradientUnits="userSpaceOnUse">
<stop stop-color="white"/>
<stop offset="1" stop-color="#999999" stop-opacity="0"/>
</linearGradient>
</defs>
</svg>
